<?xml version="1.0" encoding="utf-8"?>
<!-- Generator: Adobe Illustrator 24.0.3, SVG Export Plug-In . SVG Version: 6.00 Build 0)  -->
<svg version="1.2" baseProfile="tiny" id="Layer_1" xmlns="http://www.w3.org/2000/svg" xmlns:xlink="http://www.w3.org/1999/xlink"
	 x="0px" y="0px" viewBox="0 0 532.63 168.21" xml:space="preserve">
<g>
	<path fill="#FFFFFF" d="M190.3,74.3l4.3-11.37l-11.4-4.31L178.9,70L190.3,74.3z M185.56,63.86l3.8,1.44l-1.44,3.8l-3.8-1.44
		L185.56,63.86z"/>
	<path fill="#FFFFFF" d="M191.81,35.83l-4.31,11.4l11.4,4.31l4.31-11.4L191.81,35.83z M196.54,46.3l-3.8-1.44l1.44-3.8l3.8,1.44
		L196.54,46.3z"/>
	<path fill="#FFFFFF" d="M186.29,23.66c-9.36,24.77-18.67,49.41-27.99,74.09c0.24,0.13,0.39,0.24,0.56,0.3
		c11.18,4.23,22.36,8.46,33.55,12.64c0.42,0.16,1.13-0.1,1.55-0.39c2.27-1.53,4.47-3.16,6.73-4.69c0.68-0.46,1.45-0.8,2.2-1.16
		l-36.04-13.79l4.88-12.49l27.15,10.39c0.15-4.19,2.38-8.36,6.42-9.99c1.69-0.68,3.4-0.97,5.11-0.97l-3.5-1.32l-3.84-1.32
		l-2.83,7.48l-3.8-1.44l7.18-19l11.4,4.31l-1.44,3.8l3.8,1.44l1.44-3.8l3.8,1.44l-3.92,10.37c1.51,0.58,3.02,1.19,4.57,1.78
		c4.78-12.64,9.6-25.41,14.45-38.24C220.55,36.6,203.47,30.15,186.29,23.66z M192.65,79.57l-19-7.18l7.18-19l19,7.18L192.65,79.57z
		 M201.26,56.77l-19-7.18l7.18-19l19,7.18L201.26,56.77z M205.06,58.21l7.18-19l19,7.18l-7.18,19L205.06,58.21z"/>
	<path fill="#FFFFFF" d="M523.92,112.08L523.92,112.08c-1.08-1.5-7.69-8.03-8.57-8.77c-1.13-0.94-2.4-1.75-3.78-2.41
		c-2.36-1.12-5.01-1.73-7.87-1.82v-0.02h-46.47c-2,0-3.96,0.21-5.85,0.62c0.07-0.5,0.11-1.01,0.11-1.52c0-2.39-0.83-4.73-2.33-6.59
		c-0.7-0.87-6.23-6.4-7.13-7.14c-1.86-1.52-4.22-2.36-6.63-2.36h-82.9c-3.14,0-6.02,1.39-7.97,3.66c-2.18-1.32-4.55-2.38-7.08-3.15
		c-3.69-1.13-7.67-1.7-11.82-1.7c-4.75,0-9.52,0.75-14.19,2.25c-4.88,1.56-9.35,3.96-13.26,7.14c-0.93,0.76-1.83,1.57-2.69,2.42
		c-1.06-1.15-4.11-4.21-5.43-5.45c-2.11-1.95-4.58-3.45-7.4-4.45c-3.16-1.13-6.62-1.71-10.23-1.72c-3.59-0.1-7.41,0.56-11.33,1.89
		c-0.05,0.02-0.1,0.04-0.16,0.05c-1.3-0.56-2.7-0.85-4.14-0.85h-21.16c-0.21,0-0.43,0.01-0.64,0.02
		c5.07-13.34,10.42-27.51,16.71-44.22c0.54-1.43,1.13-3.1,1.3-4.91c0.68-7-3.21-13.16-9.91-15.7c-11.46-4.34-22.92-8.67-34.38-13
		l-8.95-3.38c-8.93-3.37-17.19,0.35-20.56,9.26l-14.79,39.14c0,0,0,0,0,0c-5.01-1.69-10.44-0.76-14.5,2.49
		c-3.67,2.93-5.75,7.37-5.71,12.11c-3.48,1.66-6.19,4.59-7.55,8.2c-1.12,2.97-1.24,6.2-0.41,9.26c-1.48-0.24-3.01-0.35-4.6-0.35
		c-3.42,0-6.86,0.65-10.21,1.92c-1.28-0.54-2.65-0.81-4.06-0.81H98.75l-4.78-4.69c-1.61-1.62-4.88-4.88-5.74-5.62
		c-3.81-3.3-8.37-5.83-13.56-7.52c-4.9-1.59-10.3-2.4-16.04-2.4c-7.21,0-14,1.14-20.2,3.39c-6.37,2.32-11.99,5.72-16.69,10.1
		c-4.75,4.43-8.48,9.82-11.1,16c-2.6,6.12-3.92,13.01-3.92,20.47c0,5.71,0.97,10.99,2.89,15.69c1.14,2.8,2.58,5.38,4.31,7.72
		c1.3,1.75,9.35,9.87,10.01,10.47c3.68,3.34,8.13,5.92,13.21,7.67c4.82,1.66,10.21,2.5,16.02,2.5c3.74,0,7.49-0.34,11.13-1
		c0.84-0.15,1.69-0.33,2.56-0.54l2.77,2.88c1.65,1.83,3.89,3.02,6.33,3.36c0.29,0.05,0.59,0.1,0.9,0.12
		c2.81,0.26,5.62-0.62,7.76-2.43l5.84-4.93c1.37,0.64,2.87,0.97,4.4,0.97h29.62c5.1,0,9.45-3.65,10.34-8.67l2.16-12.24
		c0.14-0.69,0.21-1.39,0.21-2.1c0-2.41-0.84-4.76-2.37-6.62c-0.04-0.05-0.09-0.12-0.16-0.19c1.84,0.97,3.92,1.39,6.11,1.15
		c1.43-0.17,2.8-0.62,4.02-1.32c-0.13,1.03-0.22,2.05-0.26,3.07c-0.28,3.83,0.09,7.64,1.2,11.3c0,0.01,0.01,0.03,0.01,0.04
		c0.99,3.17,4.07,5.29,7.38,5.04c1.09-0.08,2.2-0.13,3.32-0.13c12.04,0,22.7,4.82,29.29,12.23c2.89,3.25,7.36,4.56,11.51,3.25
		c2.28-0.72,4.56-1.6,6.81-2.65c6.2-2.87,11.56-6.7,15.94-11.09c0.53,0.55,1.66,1.67,3.22,3.22c1.02,1.01,1.93,1.91,2.1,2.1
		c2.17,2.33,4.98,3.62,7.93,3.62h60.45c3.52,0,6.68-1.73,8.59-4.46c2.62,1.75,5.58,3.11,8.83,4.05c3.7,1.07,7.74,1.61,12.02,1.61
		c4.87,0,9.69-0.71,14.31-2.11c4.95-1.5,9.43-3.86,13.3-7.02c1.18-0.96,2.3-2.01,3.35-3.13c0.34,0.63,0.74,1.23,1.2,1.78
		c0.74,0.88,6.05,6.13,6.62,6.65c1.93,1.76,4.43,2.72,7.03,2.72h44.99c2.28,0,4.47-0.75,6.25-2.08c3.8,2.72,8.47,3.93,13.5,3.3
		c0.08,0.09,0.17,0.18,0.25,0.27c0.06,0.06,6.19,6.29,7.55,7.36c2.38,1.88,5.21,3.25,8.4,4.1c2.67,0.7,5.58,1.06,8.67,1.06
		c7.28,0,13.45-1.88,18.36-5.6c2.88-2.18,5.21-5,6.94-8.38h16.78c5.1,0,9.45-3.65,10.34-8.67l1.31-7.45
		c0.12-0.61,0.19-1.23,0.21-1.86c2.51-0.62,4.71-2.16,6.17-4.33l5.45-8.12C526.55,120.44,526.47,115.62,523.92,112.08z
		 M521.21,122.12l-5.45,8.12c-1.14,1.7-2.98,2.82-5.01,3.05c-0.27,0.03-0.53,0.05-0.8,0.05c-0.58,0-1.15-0.07-1.7-0.21
		c0.48,0.95,0.75,2.02,0.75,3.15c0,0.49-0.05,0.98-0.15,1.44l-1.32,7.5c-0.59,3.34-3.5,5.78-6.89,5.78h-18.29
		c-0.24,0-0.48-0.02-0.71-0.04c-1.54,3.77-3.81,6.84-6.83,9.13c-4.28,3.24-9.74,4.89-16.24,4.89c-2.79,0-5.4-0.32-7.78-0.94
		c-2.72-0.72-5.12-1.88-7.12-3.46c-1.03-0.81-6.69-6.52-7.19-7.04c-0.5-0.52-0.95-1.06-1.37-1.64c-1.3,0.29-2.61,0.45-3.9,0.45
		c-3.48,0-6.72-1.07-9.36-3.1c-0.61-0.46-1.24-1.05-1.85-1.76c-1.25,2.15-3.55,3.47-6.04,3.47h-16.19c-2.57,0-4.85-1.39-6.07-3.52
		c-1.24,2.17-3.56,3.52-6.07,3.52h-16.65c-1.79,0-3.43-0.68-4.68-1.81c-0.58-0.53-5.73-5.63-6.29-6.31
		c-0.73-0.87-1.25-1.93-1.48-3.1l-0.84-4.24c-1.94,3.18-4.32,5.95-7.12,8.23c-3.52,2.87-7.59,5.01-12.1,6.38
		c-4.29,1.3-8.76,1.95-13.3,1.95c-3.95,0-7.67-0.49-11.05-1.47c-3.64-1.05-6.86-2.68-9.56-4.85c-0.62-0.5-1.21-1.03-1.77-1.59
		l-0.16,0.93c-0.59,3.34-3.5,5.78-6.89,5.78h-60.45c-2.07,0-3.95-0.98-5.36-2.5c-0.33-0.35-5.03-4.98-5.59-5.59
		c-0.96-1.04-1.48-2.38-1.61-3.77c-6.12,7.09-13.38,12.72-22.39,16.1c-0.55,0.21-1.13,0.36-1.7,0.51c-1.3,0.34-2.95-0.3-3.66-1.45
		c-1.15-1.86-1.14-3.32,0.07-4.7c0.44-0.5,1.04-0.98,1.66-1.21c8.38-3.02,15.01-8.15,20.47-14.63c1.78-2.11,3.44-4.37,5-6.74
		c3.41-5.2,6.57-10.58,9.6-16.01c0.11-0.19,0.22-0.39,0.33-0.58c3.29-5.94,2.68-10.93-1.85-15.62c-0.27-0.28-0.55-0.56-0.85-0.84
		c-3.36-3.14-7.13-5.58-11.38-7.12c-1.26-0.46-2.57-0.83-3.92-1.12c-0.12-0.03-0.24-0.06-0.36-0.09c-1.62-0.33-3.39-0.53-4.42,1.1
		c-1.05,1.66-0.95,3.5,0.12,5.17c0.02,0.03,0.04,0.06,0.06,0.1c0.6,0.9,1.32,1.72,2.01,2.57c0.13,0.16,0.27,0.33,0.39,0.49
		c0.29,0.37,0.56,0.75,0.81,1.13c0.42,0.63,0.8,1.28,1.12,1.95c0.78,1.65,1.19,3.43,0.95,5.4c-0.48,3.93-3.03,6.19-6.28,7.88
		c-0.14,0.07-0.26,0.15-0.4,0.22c-3.99,1.98-7.64,4.42-10.19,8.2c-1.89,2.81-2.63,5.9-2.2,9.26c0.11,0.87,0.31,1.74,0.4,2.62
		c0.2,1.99-1.04,3.7-2.94,4.15c-1.88,0.44-3.72-0.42-4.39-2.29c-0.33-0.91-0.87-1.29-1.7-1.6c-8.93-3.35-17.84-6.73-26.76-10.1
		c-0.47-0.18-0.94-0.36-1.55-0.58c-0.97,4.06-1.29,7.97-0.63,11.97c0.19,1.14,0.19,2.45-0.22,3.5c-0.6,1.55-2.29,2.23-3.93,2.01
		c-1.63-0.22-2.82-1.38-3.23-3.22c-0.86-3.8-0.95-7.63-0.35-11.48c0.3-1.92,0.73-3.83,1.05-5.75c0.07-0.4,0.04-0.98-0.2-1.26
		c-0.47-0.56-0.87-1.14-1.22-1.73l-2.63,3.92c-1.14,1.7-2.98,2.82-5.01,3.05c-0.27,0.03-0.53,0.05-0.8,0.05
		c-1.76,0-3.47-0.67-4.78-1.88c-0.08-0.07-0.28-0.18-0.62-0.28c-0.72-0.21-1.42-0.32-2.08-0.32c-0.65,0.02-1.72,0.12-2.22,0.57
		c-0.48,0.44-0.86,1.37-1.08,2.64c0,0,2.74,3.27,3.31,3.97c0.98,1.2,1.58,2.73,1.58,4.41c0,0.49-0.05,0.98-0.15,1.44l-2.17,12.29
		c-0.59,3.34-3.5,5.78-6.89,5.78H94.85c-1.74,0-3.41-0.66-4.69-1.81l-7.82,6.6c-1.27,1.07-2.87,1.65-4.51,1.65
		c-0.22,0-0.44-0.01-0.66-0.03c-0.23-0.02-0.45-0.05-0.67-0.1c-1.66-0.22-3.2-1.03-4.32-2.29l-4.22-4.39
		c-1.42,0.39-2.85,0.73-4.29,0.99c-3.43,0.62-6.96,0.94-10.5,0.94c-5.42,0-10.43-0.78-14.88-2.31c-4.63-1.59-8.66-3.93-11.99-6.95
		c-0.87-0.79-5.48-5.49-5.59-5.59c-3.41-3.09-6.05-6.9-7.85-11.33c-1.75-4.29-2.63-9.12-2.63-14.37c0-6.99,1.22-13.42,3.64-19.11
		c2.43-5.73,5.88-10.71,10.27-14.81c4.36-4.06,9.57-7.22,15.49-9.37c5.81-2.11,12.2-3.18,19-3.18c5.37,0,10.4,0.75,14.96,2.23
		c4.74,1.54,8.9,3.85,12.35,6.84c0.64,0.55,3.34,3.22,5.55,5.44l5.83,5.73h20.1c1.43,0,2.76,0.43,3.87,1.17
		c0.07-0.03,0.14-0.06,0.21-0.09c3.35-1.45,6.78-2.18,10.18-2.18c2.81,0,5.4,0.42,7.74,1.23c0.26-0.3,0.52-0.59,0.81-0.87
		c0.69-0.65,0.89-1.04,0.37-2.01c-3.25-6.16-0.52-13.66,5.99-16.15c1.01-0.39,1.3-0.69,1.2-1.75c-0.82-8.62,7.25-15.06,15.45-12.36
		c1.05,0.35,2.07,0.77,3.25,1.22c0.25-0.66,0.44-1.17,0.64-1.68c5.13-13.57,10.26-27.15,15.39-40.72c2.7-7.14,8.89-9.92,16.05-7.22
		C213,9.7,227.45,15.15,241.88,20.62c5.25,1.99,8.2,6.59,7.67,12.09c-0.13,1.36-0.61,2.72-1.09,4.02
		c-5.98,15.89-11.97,31.77-18.01,47.64c-0.41,1.08-0.29,1.7,0.61,2.44c0.12,0.1,0.23,0.2,0.35,0.3c1.19-0.91,2.66-1.45,4.25-1.45
		h21.16c1.44,0,2.78,0.44,3.89,1.18c0.5-0.21,1.02-0.4,1.53-0.58c3.34-1.14,6.57-1.71,9.6-1.71c0.17,0,0.35,0,0.52,0.01
		c3.27,0.01,6.34,0.52,9.13,1.51c3.23,1.16,4.86,3.25,8,5.67c1.03,0.82,1.96,1.76,2.8,2.8c1.09,0.87,2.09,1.86,2.97,2.99
		c0.09,0.11,0.17,0.24,0.25,0.35c1.46-1.82,3.09-3.46,4.88-4.92c3.58-2.9,7.66-5.09,12.12-6.52c4.32-1.38,8.74-2.08,13.12-2.08
		c3.81,0,7.44,0.52,10.79,1.55c3.48,1.07,6.6,2.72,9.29,4.91c0.78-3.08,3.56-5.27,6.78-5.27h82.9h0.01c1.67,0,3.21,0.59,4.41,1.57
		c0.69,0.57,6.04,5.9,6.62,6.62c0.97,1.2,1.55,2.73,1.55,4.39c0,0.49-0.05,0.98-0.15,1.44l-0.95,5.36c0.32-0.16,0.63-0.34,0.96-0.48
		c2.91-1.28,6.06-1.93,9.38-1.93c2.37,0,4.52,0.34,6.41,1.01c0.72-0.25,1.49-0.38,2.29-0.38h13.69c0.41,0,0.82,0.05,1.21,0.12
		c0.28-0.04,0.57-0.06,0.86-0.06h12.44c0.88,0,1.73,0.16,2.51,0.46c2.07-0.76,4.19-1.15,6.29-1.15c2.63,0,5.02,0.5,7.13,1.5
		c1.12,0.53,2.14,1.18,3.05,1.94c0.85,0.7,7.16,7,7.97,8.12C522.79,116.5,522.84,119.69,521.21,122.12z"/>
	<path fill="#FFFFFF" d="M214.6,44.44l-4.31,11.4l11.4,4.31l4.31-11.4L214.6,44.44z M219.33,54.91l-3.8-1.44l1.44-3.8l3.8,1.44
		L219.33,54.91z"/>
	<path fill="#FFFFFF" d="M286.26,113.09c0.74-4.05,0.89-7.45,0.46-10.21c-0.43-2.76-1.29-4.97-2.58-6.62
		c-1.29-1.66-2.96-2.85-5.01-3.59c-2.06-0.74-4.34-1.1-6.85-1.1c-2.39-0.06-4.98,0.38-7.77,1.33c-2.79,0.95-5.32,2.56-7.59,4.83
		l-0.09-5.06h-20.34c1.17,1.76,2.1,3.68,2.69,5.85c0.6,2.24,0.77,4.43,0.59,6.57h0.04l-0.07,0.38c-0.1,0.95-0.26,1.89-0.5,2.82
		l-3.11,17.51h-5.93c-0.15,0.25-0.31,0.5-0.46,0.74l-2.08,11.77h27.88l2.21-12.51h-4.88l2.02-11.5c0.24-1.47,0.69-2.76,1.33-3.86
		c0.64-1.1,1.39-2.02,2.25-2.76c0.86-0.74,1.79-1.27,2.81-1.61c1.01-0.34,2.04-0.51,3.08-0.51c0.8,0,1.55,0.14,2.25,0.41
		c0.7,0.28,1.29,0.71,1.75,1.29c0.46,0.58,0.78,1.37,0.97,2.35c0.18,0.98,0.15,2.18-0.09,3.59l-2.21,12.6h-4.69l-2.21,12.51h27.97
		l2.21-12.51h-6.26L286.26,113.09z"/>
	<path fill="#FFFFFF" d="M341.46,96.39c-2.02-1.69-4.39-2.94-7.08-3.77c-2.7-0.83-5.61-1.24-8.74-1.24c-3.68,0-7.35,0.58-10.99,1.75
		c-3.65,1.17-6.93,2.93-9.84,5.29c-2.91,2.36-5.26,5.32-7.04,8.88c-1.78,3.56-2.67,7.7-2.67,12.42c0,3.44,0.54,6.39,1.61,8.88
		c1.07,2.48,2.61,4.52,4.6,6.12c1.99,1.6,4.37,2.79,7.13,3.59c2.76,0.8,5.8,1.2,9.11,1.2c3.86,0,7.62-0.55,11.27-1.66
		c3.65-1.1,6.88-2.81,9.71-5.11c2.82-2.3,5.09-5.2,6.81-8.69c1.72-3.5,2.58-7.67,2.58-12.51c0-3.37-0.57-6.32-1.7-8.83
		C345.06,100.18,343.49,98.08,341.46,96.39z M330.19,118.47c-0.58,1.38-1.38,2.58-2.39,3.59c-1.01,1.01-2.21,1.83-3.59,2.44
		c-1.38,0.61-2.87,0.92-4.46,0.92c-2.58,0-4.52-0.8-5.84-2.39c-1.32-1.59-1.98-3.5-1.98-5.7c0-1.47,0.28-2.9,0.83-4.28
		c0.55-1.38,1.32-2.61,2.3-3.68c0.98-1.07,2.16-1.93,3.54-2.58c1.38-0.64,2.93-0.97,4.65-0.97c2.58,0,4.52,0.8,5.84,2.39
		c1.32,1.6,1.98,3.53,1.98,5.8C331.07,115.61,330.77,117.09,330.19,118.47z"/>
	<polygon fill="#FFFFFF" points="433.19,105.09 435.4,92.57 407.34,92.57 405.13,105.09 409.54,105.09 402.18,118.61 398.78,93.49 
		388.66,93.49 376.33,118.61 374.4,105.09 378.35,105.09 380.56,92.57 352.5,92.57 350.29,105.09 356.73,105.09 363.36,138.39 
		380.01,138.39 389.12,121.09 392.15,138.39 408.35,138.39 426.93,105.09 	"/>
	<path fill="#FFFFFF" d="M433.7,125c-1.47-1.13-3.19-1.7-5.15-1.7c-1.23,0-2.45,0.2-3.68,0.6c-1.23,0.4-2.32,1-3.27,1.79
		c-0.95,0.8-1.73,1.79-2.35,2.99c-0.61,1.2-0.92,2.62-0.92,4.28c0,2.33,0.72,4.05,2.16,5.15c1.44,1.1,3.14,1.66,5.11,1.66
		c1.17,0,2.35-0.2,3.54-0.6c1.2-0.4,2.3-0.98,3.31-1.75c1.01-0.77,1.84-1.75,2.48-2.94c0.64-1.2,0.97-2.62,0.97-4.28
		C435.9,127.87,435.17,126.14,433.7,125z"/>
	<path fill="#FFFFFF" d="M479.61,110.19h-13.69l-1.08,3.01c-0.53-1.14-1.43-2.03-2.7-2.67c-1.27-0.64-2.91-0.97-4.91-0.97
		c-2.35,0-4.54,0.45-6.56,1.34c-2.03,0.89-3.78,2.12-5.25,3.69c-1.48,1.57-2.63,3.42-3.47,5.54c-0.83,2.12-1.25,4.39-1.25,6.82
		c0,3.26,0.9,5.92,2.7,7.98c1.8,2.06,4.44,3.19,7.93,3.38c0.76,0.04,1.58,0.02,2.47-0.06c0.89-0.08,1.78-0.25,2.67-0.51
		c0.89-0.26,1.76-0.64,2.61-1.14c0.85-0.49,1.62-1.12,2.3-1.87l-0.68,3.69c-0.3,1.7-1.06,3.05-2.27,4.03
		c-1.21,0.98-2.69,1.48-4.43,1.48c-1.21,0-2.25-0.27-3.12-0.8c-0.87-0.53-1.31-1.4-1.31-2.61l-10.4-0.11
		c-0.26,2.05-0.1,3.82,0.48,5.34c0.59,1.51,1.51,2.76,2.76,3.75c1.25,0.98,2.77,1.71,4.57,2.19c1.8,0.47,3.8,0.71,5.99,0.71
		c4.96,0,8.97-1.16,12.02-3.47c3.05-2.31,5.01-5.89,5.88-10.74l3.58-20.28h3.81L479.61,110.19z M462.43,125.78
		c-0.36,0.85-0.85,1.61-1.48,2.27c-0.62,0.66-1.36,1.18-2.22,1.56c-0.85,0.38-1.79,0.57-2.81,0.57c-1.36,0-2.48-0.43-3.35-1.31
		c-0.87-0.87-1.31-2.08-1.31-3.64c0-1.14,0.19-2.14,0.57-3.01c0.38-0.87,0.88-1.62,1.51-2.24c0.62-0.62,1.34-1.1,2.16-1.42
		c0.81-0.32,1.68-0.48,2.59-0.48c1.63,0,2.85,0.45,3.66,1.34c0.81,0.89,1.22,2.09,1.22,3.61
		C462.97,124.01,462.79,124.93,462.43,125.78z"/>
	<path fill="#FFFFFF" d="M507.06,110.38c-1.16-0.55-2.53-0.82-4.12-0.82c-1.51,0-3.04,0.33-4.57,0.99c-1.53,0.66-2.83,1.6-3.89,2.81
		l-0.34-3.12h-12.44l-1.31,7.67h3.86l-2.27,12.78h-3.86l-1.36,7.73h18.29l1.36-7.73h-3.98l1.02-5.91c0.3-1.78,0.98-3.14,2.02-4.09
		c1.04-0.95,2.45-1.44,4.23-1.48c0.83,0,1.68,0.12,2.53,0.37c0.85,0.25,1.56,0.63,2.13,1.16l5.45-8.12
		C509.13,111.68,508.21,110.93,507.06,110.38z"/>
	<path fill="#FFFFFF" d="M146.28,89.97c-0.1,0.06-0.19,0.12-0.29,0.18c-1.47,1.06-2.07,2.63-1.67,4.4c0.59,2.59,2.9,2.92,4.99,3.68
		c0.47-1.26,0.94-2.48,1.4-3.71c0.48-1.27,0.96-2.54,1.45-3.84C150.19,89.91,148.32,88.73,146.28,89.97z"/>
	<path fill="#FFFFFF" d="M147.63,75.91c-0.83,1.91-0.65,3.92,0.85,4.76c2.02,1.14,4.25,1.9,6.41,2.83c1.03-2.72,1.94-5.13,2.86-7.57
		c-2.13-0.8-4.16-1.72-6.27-2.32C149.94,73.18,148.33,74.31,147.63,75.91z"/>
	<path fill="#FFFFFF" d="M163.4,60.98c-2.21-0.82-4.23-2.22-6.39-0.38c-1.35,1.15-1.88,2.68-1.41,4.38
		c0.68,2.47,2.93,2.81,4.95,3.53C161.52,65.96,162.43,63.55,163.4,60.98z"/>
</g>
<g>
	<path fill="#F9ED32" d="M202.66,98.45c-1.55-1.77-2.67-3.74-3.29-5.96l-25.64-9.81l-2.33,5.97l33.4,12.78
		c-0.11-0.24-0.24-0.5-0.43-0.8C203.88,99.85,203.27,99.14,202.66,98.45z"/>
	<path fill="#F9ED32" d="M136.56,92.23c-1.46-0.44-3.08-0.67-4.88-0.67c-2.45,0-4.92,0.54-7.41,1.61c-2.48,1.07-4.59,2.59-6.3,4.55
		l-0.55-5.06H97.27l-2.12,12.42h6.26l-3.68,20.7h-6.26l-2.21,12.51h29.62l2.21-12.51h-6.44l1.66-9.57c0.49-2.88,1.58-5.09,3.27-6.62
		c1.69-1.53,3.97-2.33,6.85-2.39c1.35,0,2.71,0.2,4.09,0.6c1.38,0.4,2.53,1.03,3.45,1.89l5.56-8.28
		C137.23,98.9,136.19,95.53,136.56,92.23z"/>
	<path fill="#F9ED32" d="M90,100.12c0-4.29-0.75-8.16-2.25-11.59c-1.5-3.43-3.63-6.35-6.39-8.74c-2.76-2.39-6.07-4.22-9.94-5.47
		c-3.86-1.26-8.13-1.89-12.79-1.89c-6.01,0-11.55,0.92-16.61,2.76c-5.06,1.84-9.43,4.48-13.11,7.91c-3.68,3.44-6.55,7.58-8.6,12.42
		c-2.06,4.85-3.08,10.3-3.08,16.38c0,4.36,0.7,8.27,2.12,11.73c1.41,3.47,3.43,6.39,6.07,8.79c2.64,2.39,5.83,4.23,9.57,5.52
		c3.74,1.29,7.94,1.93,12.6,1.93c3.13,0,6.21-0.28,9.25-0.83c2.77-0.5,5.41-1.27,7.95-2.28l7.05,7.92l0.21,0.23l0.21-0.16
		l14.17-11.96l0.37-0.32l-0.56-0.6l-4.29-4.82l-1.41-1.81c2.7-3.37,4.95-7.11,6.76-11.22C89.09,109.9,90,105.27,90,100.12z
		 M69.99,111.62c-0.19,0.45-0.4,0.88-0.61,1.31l-10.7-10.31l-12.21,11.92l6.98,9.46c-1.01,0.13-2.04,0.21-3.1,0.21
		c-4.54,0-8.14-1.33-10.81-4s-4-6.3-4-10.9c0-3.13,0.55-5.99,1.66-8.6c1.1-2.61,2.59-4.86,4.46-6.76c1.87-1.9,4.09-3.39,6.67-4.46
		c2.58-1.07,5.34-1.61,8.28-1.61c2.27,0,4.34,0.37,6.21,1.1c1.87,0.74,3.45,1.76,4.74,3.08c1.29,1.32,2.28,2.88,2.99,4.69
		c0.7,1.81,1.06,3.82,1.06,6.03C71.6,106.04,71.06,108.98,69.99,111.62z"/>
	<path fill="#F9ED32" d="M154.72,106.94c-1.31,3.46-0.61,5,2.88,6.32c8.92,3.37,17.83,6.74,26.75,10.11
		c0.51,0.19,1.02,0.39,1.42,0.54c0.84-2.22,1.62-4.29,2.41-6.38c-11.02-4.16-21.86-8.26-32.78-12.39
		C155.14,105.81,154.93,106.37,154.72,106.94z"/>
	<path fill="#F9ED32" d="M237.69,27.25c-13.9-5.05-27.69-10.39-41.52-15.62c-0.57-0.21-1.13-0.44-1.71-0.6
		c-1.55-0.42-3.37,0.27-4.06,1.68c-0.55,1.11-0.9,2.32-1.37,3.56c17.17,6.49,34.24,12.94,51.41,19.42
		C242.5,31.92,242.9,29.14,237.69,27.25z"/>
</g>
<g>
	<path fill="#221D51" d="M67.55,92.07c-1.29-1.32-2.87-2.35-4.74-3.08c-1.87-0.74-3.94-1.1-6.21-1.1c-2.94,0-5.7,0.54-8.28,1.61
		c-2.58,1.07-4.8,2.56-6.67,4.46c-1.87,1.9-3.36,4.16-4.46,6.76c-1.1,2.61-1.66,5.47-1.66,8.6c0,4.6,1.33,8.23,4,10.9
		s6.27,4,10.81,4c1.06,0,2.09-0.09,3.1-0.21l-6.98-9.46l12.21-11.92l10.7,10.31c0.21-0.43,0.42-0.86,0.61-1.31
		c1.07-2.64,1.61-5.58,1.61-8.83c0-2.21-0.35-4.22-1.06-6.03C69.83,94.95,68.84,93.39,67.55,92.07z"/>
	<path fill="#221D51" d="M521.08,114.12c-0.81-1.13-7.12-7.42-7.97-8.12c-0.91-0.76-1.93-1.4-3.05-1.94c-2.1-1-4.5-1.5-7.13-1.5
		c-0.18,0-0.36,0.02-0.54,0.02h-44.48c-0.23-0.01-0.45-0.02-0.68-0.02c-3.31,0-6.47,0.65-9.38,1.93c-0.33,0.15-0.64,0.32-0.96,0.48
		l0.95-5.36c0.1-0.47,0.15-0.95,0.15-1.44c0-1.66-0.58-3.19-1.55-4.39c-0.58-0.72-5.93-6.06-6.62-6.62
		c-1.2-0.98-2.74-1.57-4.41-1.57h-0.01h-82.9c-3.22,0-5.99,2.19-6.78,5.27c-2.69-2.19-5.81-3.84-9.29-4.91
		c-3.35-1.03-6.99-1.55-10.79-1.55c-4.38,0-8.8,0.7-13.12,2.08c-4.47,1.43-8.55,3.62-12.12,6.52c-1.73,1.41-3.31,2.99-4.73,4.72
		c-0.43-0.43-8.07-8.07-9.19-8.92c-1.48-1.14-3.14-2.04-4.98-2.7c-2.79-1-5.86-1.51-9.13-1.51c-0.17,0-0.35-0.01-0.52-0.01
		c-3.03,0-6.26,0.58-9.6,1.71c-0.52,0.18-1.03,0.37-1.53,0.58c-1.11-0.75-2.45-1.18-3.89-1.18h-21.16c-1.59,0-3.06,0.54-4.25,1.45
		c-0.12-0.1-0.23-0.2-0.35-0.3c-0.91-0.74-1.02-1.36-0.61-2.44c6.04-15.87,12.03-31.75,18.01-47.64c0.49-1.3,0.96-2.65,1.09-4.02
		c0.54-5.5-2.41-10.1-7.67-12.09C227.45,15.15,213,9.7,198.55,4.25c-7.16-2.7-13.35,0.08-16.05,7.22
		c-5.13,13.57-10.26,27.15-15.39,40.72c-0.19,0.51-0.38,1.02-0.64,1.68c-1.18-0.45-2.2-0.88-3.25-1.22
		c-8.2-2.7-16.27,3.74-15.45,12.36c0.1,1.05-0.18,1.36-1.2,1.75c-6.5,2.49-9.24,9.99-5.99,16.15c0.52,0.98,0.32,1.36-0.37,2.01
		c-0.29,0.28-0.55,0.57-0.81,0.87c-2.34-0.81-4.93-1.23-7.74-1.23c-3.4,0-6.83,0.73-10.18,2.18c-0.07,0.03-0.14,0.06-0.21,0.09
		c-1.11-0.74-2.45-1.17-3.87-1.17h-20.1l-5.83-5.73c-2.21-2.22-4.91-4.89-5.55-5.44c-3.45-3-7.61-5.3-12.35-6.84
		c-4.55-1.48-9.58-2.23-14.96-2.23c-6.8,0-13.19,1.07-19,3.18c-5.93,2.16-11.14,5.31-15.49,9.37c-4.39,4.1-7.84,9.08-10.27,14.81
		c-2.41,5.69-3.64,12.12-3.64,19.11c0,5.25,0.89,10.09,2.63,14.37c1.8,4.43,4.44,8.24,7.85,11.33c0.1,0.09,4.71,4.79,5.59,5.59
		c3.33,3.02,7.36,5.36,11.99,6.95c4.46,1.53,9.46,2.31,14.88,2.31c3.54,0,7.07-0.32,10.5-0.94c1.44-0.26,2.87-0.6,4.29-0.99
		l4.22,4.39c1.12,1.26,2.66,2.07,4.32,2.29c0.22,0.04,0.44,0.07,0.67,0.1c0.22,0.02,0.44,0.03,0.66,0.03c1.65,0,3.25-0.58,4.51-1.65
		l7.82-6.6c1.28,1.15,2.94,1.81,4.69,1.81h29.62c3.4,0,6.3-2.44,6.89-5.78l2.17-12.29c0.1-0.47,0.15-0.95,0.15-1.44
		c0-1.68-0.59-3.21-1.58-4.41c-0.57-0.7-3.31-3.97-3.31-3.97c0.22-1.27,0.6-2.2,1.08-2.64c0.49-0.45,1.57-0.55,2.22-0.57
		c0.66,0.01,1.36,0.12,2.08,0.32c0.34,0.1,0.54,0.21,0.62,0.28c1.3,1.22,3.01,1.88,4.78,1.88c0.27,0,0.53-0.01,0.8-0.05
		c2.04-0.23,3.87-1.35,5.01-3.05l2.63-3.92c0.35,0.59,0.75,1.17,1.22,1.73c0.24,0.28,0.26,0.85,0.2,1.26
		c-0.32,1.92-0.75,3.82-1.05,5.75c-0.61,3.84-0.51,7.68,0.35,11.48c0.42,1.84,1.61,3,3.23,3.22c1.64,0.22,3.33-0.46,3.93-2.01
		c0.4-1.05,0.4-2.36,0.22-3.5c-0.66-4-0.33-7.92,0.63-11.97c0.6,0.23,1.08,0.41,1.55,0.58c8.92,3.37,17.84,6.75,26.76,10.1
		c0.83,0.31,1.37,0.69,1.7,1.6c0.67,1.87,2.51,2.73,4.39,2.29c1.9-0.45,3.13-2.16,2.94-4.15c-0.09-0.88-0.29-1.74-0.4-2.62
		c-0.43-3.36,0.31-6.46,2.2-9.26c2.55-3.78,6.2-6.22,10.19-8.2c0.14-0.07,0.27-0.14,0.4-0.22c3.25-1.69,5.8-3.95,6.28-7.88
		c0.24-1.97-0.17-3.75-0.95-5.4c-0.32-0.67-0.69-1.32-1.12-1.95c-0.26-0.38-0.53-0.76-0.81-1.13c-0.13-0.17-0.26-0.33-0.39-0.49
		c-0.69-0.85-1.41-1.67-2.01-2.57c-0.02-0.03-0.04-0.06-0.06-0.1c-1.07-1.66-1.17-3.5-0.12-5.17c1.03-1.63,2.8-1.43,4.42-1.1
		c0.12,0.03,0.24,0.06,0.36,0.09c1.35,0.29,2.66,0.66,3.92,1.12c4.24,1.54,8.02,3.98,11.38,7.12c0.3,0.28,0.58,0.56,0.85,0.84
		c4.53,4.7,5.15,9.69,1.85,15.62c-0.11,0.19-0.22,0.39-0.33,0.58c-3.03,5.44-6.19,10.81-9.6,16.01c-1.56,2.37-3.22,4.63-5,6.74
		c-5.47,6.47-12.1,11.6-20.47,14.63c-0.62,0.22-1.22,0.7-1.66,1.21c-1.21,1.38-1.22,2.83-0.07,4.7c0.7,1.14,2.36,1.79,3.66,1.45
		c0.57-0.15,1.15-0.31,1.7-0.51c9.01-3.38,16.27-9.02,22.39-16.1c0.12,1.4,0.64,2.74,1.61,3.77c0.56,0.6,5.26,5.23,5.59,5.59
		c1.42,1.53,3.29,2.5,5.36,2.5h60.45c3.4,0,6.3-2.44,6.89-5.78l0.16-0.93c0.56,0.56,1.15,1.09,1.77,1.59
		c2.7,2.16,5.92,3.8,9.56,4.85c3.38,0.98,7.1,1.47,11.05,1.47c4.53,0,9.01-0.66,13.3-1.95c4.51-1.37,8.58-3.51,12.1-6.38
		c2.8-2.28,5.18-5.05,7.12-8.23l0.84,4.24c0.23,1.18,0.76,2.23,1.48,3.1c0.56,0.68,5.71,5.77,6.29,6.31
		c1.25,1.13,2.89,1.81,4.68,1.81h16.65c2.51,0,4.83-1.35,6.07-3.52c1.22,2.12,3.51,3.52,6.07,3.52h16.19c2.49,0,4.79-1.33,6.04-3.47
		c0.61,0.71,1.25,1.29,1.85,1.76c2.64,2.03,5.88,3.1,9.36,3.1c1.3,0,2.6-0.16,3.9-0.45c0.42,0.58,0.88,1.12,1.37,1.64
		c0.5,0.52,6.16,6.22,7.19,7.04c2,1.58,4.4,2.74,7.12,3.46c2.37,0.62,4.99,0.94,7.78,0.94c6.5,0,11.96-1.64,16.24-4.89
		c3.02-2.29,5.29-5.36,6.83-9.13c0.23,0.02,0.47,0.04,0.71,0.04h18.29c3.4,0,6.3-2.44,6.89-5.78l1.32-7.5
		c0.1-0.47,0.15-0.95,0.15-1.44c0-1.13-0.27-2.2-0.75-3.15c0.55,0.14,1.12,0.21,1.7,0.21c0.27,0,0.53-0.02,0.8-0.05
		c2.04-0.23,3.87-1.35,5.01-3.05l5.45-8.12C522.84,119.69,522.79,116.5,521.08,114.12z M81.94,127.05l4.29,4.82l0.56,0.6l-0.37,0.32
		l-14.17,11.96l-0.21,0.16l-0.21-0.23l-7.05-7.92c-2.54,1.01-5.18,1.78-7.95,2.28c-3.04,0.55-6.12,0.83-9.25,0.83
		c-4.66,0-8.86-0.64-12.6-1.93c-3.74-1.29-6.93-3.13-9.57-5.52c-2.64-2.39-4.66-5.32-6.07-8.79c-1.41-3.46-2.12-7.37-2.12-11.73
		c0-6.07,1.03-11.53,3.08-16.38c2.05-4.84,4.92-8.98,8.6-12.42c3.68-3.43,8.05-6.07,13.11-7.91c5.06-1.84,10.59-2.76,16.61-2.76
		c4.66,0,8.92,0.63,12.79,1.89c3.86,1.26,7.18,3.08,9.94,5.47c2.76,2.39,4.89,5.31,6.39,8.74c1.5,3.44,2.25,7.3,2.25,11.59
		c0,5.15-0.91,9.78-2.71,13.89c-1.81,4.11-4.06,7.85-6.76,11.22L81.94,127.05z M133.98,109.69c-0.92-0.86-2.07-1.49-3.45-1.89
		c-1.38-0.4-2.75-0.6-4.09-0.6c-2.88,0.06-5.17,0.86-6.85,2.39c-1.69,1.53-2.78,3.74-3.27,6.62l-1.66,9.57h6.44l-2.21,12.51H89.26
		l2.21-12.51h6.26l3.68-20.7h-6.26l2.12-12.42h20.15l0.55,5.06c1.72-1.96,3.82-3.48,6.3-4.55c2.48-1.07,4.95-1.61,7.41-1.61
		c1.8,0,3.42,0.23,4.88,0.67c-0.37,3.3,0.67,6.67,2.97,9.18L133.98,109.69z M190.4,12.71c0.7-1.41,2.52-2.1,4.06-1.68
		c0.58,0.16,1.14,0.39,1.71,0.6c13.83,5.22,27.62,10.57,41.52,15.62c5.21,1.89,4.81,4.67,2.74,8.44
		c-17.17-6.49-34.24-12.94-51.41-19.42C189.5,15.03,189.85,13.82,190.4,12.71z M157.01,60.61c2.16-1.84,4.18-0.44,6.39,0.38
		c-0.97,2.56-1.88,4.98-2.85,7.54c-2.02-0.72-4.27-1.05-4.95-3.53C155.13,63.29,155.66,61.75,157.01,60.61z M150.72,94.53
		c-0.46,1.23-0.93,2.46-1.4,3.71c-2.09-0.76-4.4-1.09-4.99-3.68c-0.4-1.77,0.19-3.34,1.67-4.4c0.1-0.07,0.19-0.13,0.29-0.18
		c2.04-1.25,3.92-0.06,5.89,0.72C151.68,91.99,151.2,93.26,150.72,94.53z M148.48,80.67c-1.5-0.84-1.69-2.86-0.85-4.76
		c0.7-1.6,2.31-2.73,3.85-2.3c2.12,0.6,4.14,1.52,6.27,2.32c-0.92,2.44-1.83,4.85-2.86,7.57C152.73,82.57,150.5,81.81,148.48,80.67z
		 M185.77,123.89c-0.4-0.15-0.91-0.34-1.42-0.54c-8.92-3.37-17.83-6.74-26.75-10.11c-3.49-1.32-4.19-2.85-2.88-6.32
		c0.21-0.56,0.42-1.12,0.68-1.8c10.92,4.13,21.76,8.22,32.78,12.39C187.39,119.61,186.61,121.67,185.77,123.89z M223.27,81.33
		c-1.55-0.58-3.06-1.2-4.57-1.78l3.92-10.37l-3.8-1.44l-1.44,3.8l-3.8-1.44l1.44-3.8l-11.4-4.31l-7.18,19l3.8,1.44l2.83-7.48
		l3.84,1.32l3.5,1.32c-1.71-0.01-3.42,0.28-5.11,0.97c-4.04,1.63-6.27,5.81-6.42,9.99l-27.15-10.39l-4.88,12.49l36.04,13.79
		c-0.75,0.37-1.52,0.7-2.2,1.16c-2.27,1.53-4.47,3.16-6.73,4.69c-0.43,0.29-1.14,0.54-1.55,0.39c-11.2-4.18-22.37-8.41-33.55-12.64
		c-0.17-0.06-0.32-0.17-0.56-0.3c9.32-24.68,18.63-49.32,27.99-74.09c17.18,6.49,34.26,12.95,51.43,19.43
		C232.87,55.93,228.05,68.69,223.27,81.33z M204.8,101.43l-33.4-12.78l2.33-5.97l25.64,9.81c0.62,2.22,1.74,4.18,3.29,5.96
		c0.61,0.7,1.22,1.41,1.71,2.19C204.55,100.93,204.69,101.19,204.8,101.43z M288.1,138.3h-27.97l2.21-12.51h4.69l2.21-12.6
		c0.24-1.41,0.28-2.61,0.09-3.59c-0.18-0.98-0.51-1.76-0.97-2.35c-0.46-0.58-1.04-1.01-1.75-1.29c-0.71-0.28-1.46-0.41-2.25-0.41
		c-1.04,0-2.07,0.17-3.08,0.51c-1.01,0.34-1.95,0.87-2.81,1.61c-0.86,0.74-1.61,1.66-2.25,2.76c-0.64,1.1-1.09,2.39-1.33,3.86
		l-2.02,11.5h4.88l-2.21,12.51h-27.88l2.08-11.77c0.16-0.25,0.31-0.5,0.46-0.74h5.93l3.11-17.51c0.24-0.93,0.4-1.87,0.5-2.82
		l0.07-0.38h-0.04c0.18-2.14,0.01-4.33-0.59-6.57c-0.59-2.17-1.52-4.1-2.69-5.85h20.34l0.09,5.06c2.27-2.27,4.8-3.88,7.59-4.83
		c2.79-0.95,5.38-1.39,7.77-1.33c2.51,0,4.8,0.37,6.85,1.1c2.05,0.74,3.73,1.93,5.01,3.59c1.29,1.66,2.15,3.86,2.58,6.62
		c0.43,2.76,0.28,6.16-0.46,10.21l-2.21,12.7h6.26L288.1,138.3z M345.33,124.04c-1.72,3.5-3.99,6.39-6.81,8.69
		c-2.82,2.3-6.06,4-9.71,5.11c-3.65,1.1-7.41,1.66-11.27,1.66c-3.31,0-6.35-0.4-9.11-1.2c-2.76-0.8-5.14-1.99-7.13-3.59
		c-1.99-1.59-3.53-3.63-4.6-6.12c-1.07-2.48-1.61-5.44-1.61-8.88c0-4.72,0.89-8.86,2.67-12.42c1.78-3.56,4.12-6.52,7.04-8.88
		c2.91-2.36,6.19-4.12,9.84-5.29c3.65-1.16,7.31-1.75,10.99-1.75c3.13,0,6.04,0.41,8.74,1.24c2.7,0.83,5.06,2.09,7.08,3.77
		c2.02,1.69,3.6,3.79,4.74,6.3c1.13,2.52,1.7,5.46,1.7,8.83C347.9,116.37,347.04,120.54,345.33,124.04z M408.35,138.39h-16.19
		l-3.04-17.3l-9.11,17.3h-16.65l-6.62-33.3h-6.44l2.21-12.51h28.06l-2.21,12.51h-3.96l1.93,13.52l12.33-25.12h10.12l3.4,25.12
		l7.36-13.52h-4.42l2.21-12.51h28.06l-2.21,12.51h-6.26L408.35,138.39z M434.94,134.48c-0.64,1.2-1.47,2.18-2.48,2.94
		c-1.01,0.77-2.12,1.35-3.31,1.75c-1.2,0.4-2.38,0.6-3.54,0.6c-1.96,0-3.67-0.55-5.11-1.66c-1.44-1.1-2.16-2.82-2.16-5.15
		c0-1.66,0.31-3.08,0.92-4.28c0.61-1.2,1.39-2.19,2.35-2.99c0.95-0.8,2.04-1.39,3.27-1.79c1.23-0.4,2.45-0.6,3.68-0.6
		c1.96,0,3.68,0.57,5.15,1.7c1.47,1.14,2.21,2.87,2.21,5.2C435.9,131.86,435.58,133.28,434.94,134.48z M474.44,117.91l-3.58,20.28
		c-0.87,4.85-2.83,8.43-5.88,10.74c-3.05,2.31-7.05,3.47-12.02,3.47c-2.2,0-4.2-0.24-5.99-0.71c-1.8-0.47-3.32-1.2-4.57-2.19
		c-1.25-0.99-2.17-2.24-2.76-3.75c-0.59-1.52-0.75-3.29-0.48-5.34l10.4,0.11c0,1.21,0.43,2.08,1.31,2.61
		c0.87,0.53,1.91,0.8,3.12,0.8c1.74,0,3.22-0.49,4.43-1.48c1.21-0.99,1.97-2.33,2.27-4.03l0.68-3.69c-0.68,0.76-1.45,1.38-2.3,1.87
		c-0.85,0.49-1.72,0.87-2.61,1.14c-0.89,0.27-1.78,0.44-2.67,0.51c-0.89,0.08-1.71,0.1-2.47,0.06c-3.48-0.19-6.13-1.32-7.93-3.38
		c-1.8-2.06-2.7-4.72-2.7-7.98c0-2.42,0.42-4.7,1.25-6.82c0.83-2.12,1.99-3.97,3.47-5.54c1.48-1.57,3.23-2.8,5.25-3.69
		c2.03-0.89,4.21-1.34,6.56-1.34c2.01,0,3.65,0.32,4.91,0.97c1.27,0.64,2.17,1.53,2.7,2.67l1.08-3.01h13.69l-1.36,7.73H474.44z
		 M504.36,120.75c-0.57-0.53-1.28-0.92-2.13-1.16c-0.85-0.25-1.7-0.37-2.53-0.37c-1.78,0.04-3.19,0.53-4.23,1.48
		c-1.04,0.95-1.71,2.31-2.02,4.09l-1.02,5.91h3.98l-1.36,7.73h-18.29l1.36-7.73h3.86l2.27-12.78h-3.86l1.31-7.67h12.44l0.34,3.12
		c1.06-1.21,2.36-2.15,3.89-2.81c1.53-0.66,3.06-0.99,4.57-0.99c1.59,0,2.96,0.27,4.12,0.82c1.15,0.55,2.07,1.3,2.76,2.24
		L504.36,120.75z"/>
	<path fill="#221D51" d="M458.08,118.08c-0.91,0-1.77,0.16-2.59,0.48c-0.81,0.32-1.53,0.8-2.16,1.42c-0.62,0.63-1.13,1.37-1.51,2.24
		c-0.38,0.87-0.57,1.87-0.57,3.01c0,1.55,0.44,2.76,1.31,3.64c0.87,0.87,1.99,1.31,3.35,1.31c1.02,0,1.96-0.19,2.81-0.57
		c0.85-0.38,1.59-0.9,2.22-1.56c0.62-0.66,1.12-1.42,1.48-2.27c0.36-0.85,0.54-1.77,0.54-2.76c0-1.51-0.41-2.72-1.22-3.61
		C460.93,118.53,459.71,118.08,458.08,118.08z"/>
	<path fill="#221D51" d="M323.25,105.82c-1.72,0-3.27,0.32-4.65,0.97c-1.38,0.64-2.56,1.5-3.54,2.58c-0.98,1.07-1.75,2.3-2.3,3.68
		c-0.55,1.38-0.83,2.81-0.83,4.28c0,2.21,0.66,4.11,1.98,5.7c1.32,1.6,3.27,2.39,5.84,2.39c1.59,0,3.08-0.31,4.46-0.92
		c1.38-0.61,2.58-1.43,3.59-2.44c1.01-1.01,1.81-2.21,2.39-3.59c0.58-1.38,0.87-2.87,0.87-4.46c0-2.27-0.66-4.2-1.98-5.8
		C327.77,106.62,325.82,105.82,323.25,105.82z"/>
	<path fill="#221D51" d="M173.65,72.39l19,7.18l7.18-19l-19-7.18L173.65,72.39z M194.59,62.93l-4.3,11.37L178.9,70l4.3-11.37
		L194.59,62.93z"/>
	
		<rect x="184.71" y="64.45" transform="matrix(0.3535 -0.9355 0.9355 0.3535 58.5472 217.6694)" fill="#221D51" width="4.06" height="4.06"/>
	<path fill="#221D51" d="M189.44,30.6l-7.18,19l19,7.18l7.18-19L189.44,30.6z M198.9,51.54l-11.4-4.31l4.31-11.4l11.4,4.31
		L198.9,51.54z"/>
	
		<rect x="193.32" y="41.65" transform="matrix(0.3535 -0.9355 0.9355 0.3535 85.4408 210.9876)" fill="#221D51" width="4.06" height="4.06"/>
	<path fill="#221D51" d="M212.24,39.21l-7.18,19l19,7.18l7.18-19L212.24,39.21z M221.7,60.15l-11.4-4.31l4.31-11.4l11.4,4.31
		L221.7,60.15z"/>
	
		<rect x="216.12" y="50.27" transform="matrix(0.3535 -0.9355 0.9355 0.3535 92.1228 237.8814)" fill="#221D51" width="4.06" height="4.06"/>
</g>
</svg>
